<?xml version="1.0" encoding="UTF-8" ?>
<!DOCTYPE svg PUBLIC "-//W3C//DTD SVG 1.1//EN" "http://www.w3.org/Graphics/SVG/1.1/DTD/svg11.dtd">
<svg width="256pt" height="256pt" viewBox="0 0 256 256" version="1.1" xmlns="http://www.w3.org/2000/svg">
<g id="#e76565ff">
<path fill="#e76565" opacity="1.00" d=" M 120.23 16.25 C 143.01 14.71 166.21 20.37 185.72 32.24 C 204.19 43.35 219.30 59.92 228.68 79.33 C 240.05 102.51 242.98 129.67 236.89 154.75 C 231.91 175.74 220.69 195.20 205.01 210.02 C 185.76 228.48 159.70 239.65 133.05 240.85 C 110.54 242.02 87.73 236.18 68.56 224.33 C 48.24 211.90 32.09 192.80 23.21 170.69 C 14.14 148.41 12.53 123.17 18.70 99.91 C 24.57 77.30 37.75 56.67 55.78 41.83 C 73.86 26.80 96.76 17.68 120.23 16.25 M 63.99 76.92 C 63.36 81.32 66.07 85.09 69.12 87.92 C 82.53 101.29 96.05 114.53 109.36 128.00 C 95.35 142.10 81.22 156.09 67.23 170.20 C 63.72 173.59 63.33 178.91 64.52 183.38 C 66.63 189.59 74.01 193.28 80.23 191.21 C 83.88 190.35 86.39 187.37 88.93 184.84 C 101.88 172.00 114.47 158.78 127.64 146.17 C 141.23 159.96 155.03 173.56 168.67 187.30 C 170.56 189.30 172.95 190.86 175.69 191.39 C 183.12 193.39 191.79 186.96 191.01 179.03 C 191.50 175.22 189.58 171.71 186.91 169.15 C 173.20 155.39 159.28 141.83 145.64 128.00 C 159.51 114.07 173.43 100.20 187.32 86.29 C 192.63 81.38 192.37 71.78 186.71 67.24 C 181.94 63.10 174.15 63.29 169.60 67.69 C 155.38 81.60 141.74 96.10 127.35 109.83 C 113.94 96.19 100.29 82.78 86.83 69.19 C 84.96 67.26 82.81 65.44 80.13 64.83 C 72.57 62.20 63.21 68.68 63.99 76.92 Z" />
</g>
<g id="#ffffffff">
<path fill="#ffffff" opacity="1.00" d=" M 63.99 76.92 C 63.21 68.68 72.57 62.20 80.13 64.83 C 82.81 65.44 84.96 67.26 86.83 69.19 C 100.29 82.78 113.94 96.19 127.35 109.83 C 141.74 96.10 155.38 81.60 169.60 67.69 C 174.15 63.29 181.94 63.10 186.71 67.24 C 192.37 71.78 192.63 81.38 187.32 86.29 C 173.43 100.20 159.51 114.07 145.64 128.00 C 159.28 141.83 173.20 155.39 186.91 169.15 C 189.58 171.71 191.50 175.22 191.01 179.03 C 191.79 186.96 183.12 193.39 175.69 191.39 C 172.95 190.86 170.56 189.30 168.67 187.30 C 155.03 173.56 141.23 159.96 127.64 146.17 C 114.47 158.78 101.88 172.00 88.93 184.84 C 86.39 187.37 83.88 190.35 80.23 191.21 C 74.01 193.28 66.63 189.59 64.52 183.38 C 63.33 178.91 63.72 173.59 67.23 170.20 C 81.22 156.09 95.35 142.10 109.36 128.00 C 96.05 114.53 82.53 101.29 69.12 87.92 C 66.07 85.09 63.36 81.32 63.99 76.92 Z" />
</g>
</svg>
