<?xml version="1.0" encoding="UTF-8" ?>
<!DOCTYPE svg PUBLIC "-//W3C//DTD SVG 1.1//EN" "http://www.w3.org/Graphics/SVG/1.1/DTD/svg11.dtd">
<svg width="256pt" height="256pt" viewBox="0 0 256 256" version="1.1" xmlns="http://www.w3.org/2000/svg">
<g id="#65e765ff">
<path fill="#65e765" opacity="1.00" d=" M 113.54 16.85 C 135.00 14.19 157.23 17.79 176.66 27.32 C 195.83 36.57 212.23 51.43 223.33 69.58 C 235.19 88.75 241.03 111.56 239.85 134.08 C 238.74 158.36 229.39 182.15 213.74 200.74 C 198.72 218.75 177.89 231.86 155.13 237.55 C 132.38 243.37 107.80 241.78 86.00 233.06 C 63.83 224.33 44.62 208.31 32.06 188.06 C 19.95 168.77 13.97 145.73 15.15 122.98 C 16.24 98.92 25.41 75.30 40.83 56.80 C 58.79 34.86 85.40 20.30 113.54 16.85 M 185.04 77.09 C 158.69 103.42 132.37 129.79 106.00 156.11 C 93.97 144.12 81.97 132.09 69.96 120.08 C 65.85 115.79 58.21 115.88 54.16 120.19 C 49.99 124.33 49.97 131.73 54.21 135.83 C 68.88 150.49 83.53 165.18 98.22 179.82 C 102.34 183.95 109.71 184.07 113.79 179.83 C 142.47 151.15 171.11 122.42 199.97 93.92 C 203.07 91.12 205.60 87.16 204.91 82.81 C 204.45 77.80 200.12 73.51 195.10 73.08 C 191.30 72.54 187.61 74.38 185.04 77.09 Z" />
</g>
<g id="#ffffffff">
<path fill="#ffffff" opacity="1.00" d=" M 185.04 77.09 C 187.61 74.38 191.30 72.54 195.10 73.08 C 200.12 73.51 204.45 77.80 204.91 82.81 C 205.60 87.16 203.07 91.12 199.97 93.92 C 171.11 122.42 142.47 151.15 113.79 179.83 C 109.71 184.07 102.34 183.95 98.22 179.82 C 83.53 165.18 68.88 150.49 54.21 135.83 C 49.97 131.73 49.99 124.33 54.16 120.19 C 58.21 115.88 65.85 115.79 69.96 120.08 C 81.97 132.09 93.97 144.12 106.00 156.11 C 132.37 129.79 158.69 103.42 185.04 77.09 Z" />
</g>
</svg>
