<?xml version="1.0" encoding="UTF-8" ?>
<!DOCTYPE svg PUBLIC "-//W3C//DTD SVG 1.1//EN" "http://www.w3.org/Graphics/SVG/1.1/DTD/svg11.dtd">
<svg width="256pt" height="256pt" viewBox="0 0 256 256" version="1.1" xmlns="http://www.w3.org/2000/svg">
<g id="#e0d538ff">
<path fill="#e0d538" opacity="1.00" d=" M 114.51 16.73 C 135.67 14.31 157.50 17.93 176.64 27.30 C 195.80 36.55 212.20 51.40 223.31 69.54 C 235.16 88.70 241.02 111.50 239.85 134.00 C 238.76 158.30 229.41 182.13 213.74 200.73 C 199.11 218.29 178.97 231.19 156.88 237.09 C 133.65 243.44 108.38 242.01 86.02 233.07 C 63.61 224.26 44.25 207.99 31.69 187.46 C 20.00 168.57 14.14 146.14 15.11 123.94 C 16.01 99.55 25.20 75.55 40.83 56.80 C 58.99 34.59 86.02 19.98 114.51 16.73 M 124.34 64.51 C 120.76 65.72 118.28 69.31 118.26 73.06 C 118.24 97.40 118.25 121.74 118.26 146.08 C 117.96 151.65 123.43 156.50 128.93 155.41 C 133.46 154.88 136.90 150.58 136.74 146.09 C 136.74 121.74 136.78 97.40 136.73 73.05 C 136.89 66.89 130.03 62.22 124.34 64.51 M 123.44 169.62 C 118.77 171.24 115.72 176.17 115.99 181.04 C 116.10 187.58 122.59 193.00 129.05 191.92 C 135.78 191.23 140.64 183.82 138.59 177.37 C 137.10 170.92 129.52 167.22 123.44 169.62 Z" />
</g>
<g id="#ffffffff">
<path fill="#ffffff" opacity="1.00" d=" M 124.34 64.51 C 130.03 62.22 136.89 66.89 136.73 73.05 C 136.78 97.40 136.74 121.74 136.74 146.09 C 136.90 150.58 133.46 154.88 128.93 155.41 C 123.43 156.50 117.96 151.65 118.26 146.08 C 118.25 121.74 118.24 97.40 118.26 73.06 C 118.28 69.31 120.76 65.72 124.34 64.51 Z" />
<path fill="#ffffff" opacity="1.00" d=" M 123.44 169.62 C 129.52 167.22 137.10 170.92 138.59 177.37 C 140.64 183.82 135.78 191.23 129.05 191.92 C 122.59 193.00 116.10 187.58 115.99 181.04 C 115.72 176.17 118.77 171.24 123.44 169.62 Z" />
</g>
</svg>
