<?xml version="1.0" encoding="UTF-8" ?>
<!DOCTYPE svg PUBLIC "-//W3C//DTD SVG 1.1//EN" "http://www.w3.org/Graphics/SVG/1.1/DTD/svg11.dtd">
<svg width="512pt" height="512pt" viewBox="0 0 512 512" version="1.1" xmlns="http://www.w3.org/2000/svg">
<g id="#ffffffff">
<path fill="#ffffff" opacity="1.00" d=" M 57.46 96.69 C 59.93 96.16 62.47 96.01 64.99 96.00 C 191.00 96.00 317.00 96.00 443.01 96.00 C 449.17 95.79 455.54 96.12 461.20 98.85 C 474.78 104.73 482.81 120.80 479.17 135.19 C 476.15 149.37 462.47 160.26 447.96 160.00 C 319.96 160.00 191.96 160.02 63.96 159.98 C 48.04 160.30 33.40 147.05 32.18 131.17 C 30.23 115.41 41.88 99.60 57.46 96.69 Z" />
<path fill="#ffffff" opacity="1.00" d=" M 57.46 224.69 C 60.27 224.09 63.16 223.98 66.03 223.99 C 193.67 224.03 321.31 223.96 448.95 224.02 C 463.61 224.16 477.03 235.73 479.46 250.16 C 482.27 263.96 474.62 278.91 461.86 284.83 C 456.36 287.60 450.10 288.24 444.02 288.00 C 317.35 287.99 190.68 288.01 64.01 288.00 C 54.87 288.05 45.85 283.92 39.88 277.02 C 31.87 268.06 29.76 254.46 34.57 243.47 C 38.54 233.98 47.37 226.71 57.46 224.69 Z" />
<path fill="#ffffff" opacity="1.00" d=" M 57.45 352.66 C 59.92 352.14 62.45 351.98 64.98 351.99 C 193.01 352.03 321.05 351.96 449.08 352.03 C 464.28 352.21 478.03 364.73 479.72 379.82 C 481.90 394.28 472.70 409.30 458.92 414.07 C 455.11 415.48 451.03 416.06 446.98 416.01 C 318.97 415.97 190.95 416.05 62.94 415.97 C 47.35 415.80 33.34 402.65 32.15 387.12 C 30.24 371.37 41.89 355.58 57.45 352.66 Z" />
</g>
</svg>
