<?xml version="1.0" encoding="UTF-8" ?>
<!DOCTYPE svg PUBLIC "-//W3C//DTD SVG 1.1//EN" "http://www.w3.org/Graphics/SVG/1.1/DTD/svg11.dtd">
<svg width="256pt" height="256pt" viewBox="0 0 256 256" version="1.1" xmlns="http://www.w3.org/2000/svg">
<g id="#3870e0ff">
<path fill="#3870e0" opacity="1.00" d=" M 113.54 16.86 C 135.00 14.19 157.22 17.79 176.65 27.31 C 195.81 36.56 212.20 51.40 223.31 69.54 C 235.17 88.72 241.03 111.54 239.84 134.07 C 238.64 160.71 227.47 186.78 209.01 206.02 C 194.20 221.70 174.73 232.90 153.75 237.89 C 131.91 243.17 108.49 241.68 87.50 233.65 C 69.60 226.88 53.51 215.41 41.25 200.73 C 25.61 182.14 16.26 158.35 15.16 134.08 C 13.82 109.15 21.18 83.87 35.66 63.53 C 53.54 37.95 82.56 20.61 113.54 16.86 M 123.40 64.65 C 117.86 66.39 114.10 72.24 114.74 78.01 C 115.04 84.68 121.37 90.37 128.06 89.78 C 135.11 89.82 141.04 82.94 140.27 75.98 C 140.12 67.83 131.00 61.78 123.40 64.65 M 104.82 108.76 C 100.91 112.06 101.13 118.75 105.09 121.93 C 108.97 125.16 114.40 123.23 118.99 123.75 C 119.01 140.75 119.01 157.75 118.99 174.75 C 114.47 175.15 109.34 173.56 105.37 176.40 C 102.33 178.66 101.11 183.09 102.58 186.59 C 103.80 189.93 107.32 192.18 110.86 192.01 C 122.30 191.97 133.75 192.05 145.19 191.97 C 151.58 191.74 155.33 183.49 151.53 178.42 C 148.17 173.15 141.22 175.09 136.01 174.75 C 135.98 154.81 136.01 134.87 136.00 114.94 C 136.19 110.57 132.30 106.69 127.98 106.57 C 124.00 106.36 120.01 106.57 116.02 106.49 C 112.24 106.55 107.82 105.91 104.82 108.76 Z" />
</g>
<g id="#ffffffff">
<path fill="#ffffff" opacity="1.00" d=" M 123.40 64.65 C 131.00 61.78 140.12 67.83 140.27 75.98 C 141.04 82.94 135.11 89.82 128.06 89.78 C 121.37 90.37 115.04 84.68 114.74 78.01 C 114.10 72.24 117.86 66.39 123.40 64.65 Z" />
<path fill="#ffffff" opacity="1.00" d=" M 104.82 108.76 C 107.82 105.91 112.24 106.55 116.02 106.49 C 120.01 106.57 124.00 106.36 127.98 106.57 C 132.30 106.69 136.19 110.57 136.00 114.94 C 136.01 134.87 135.98 154.81 136.01 174.75 C 141.22 175.09 148.17 173.15 151.53 178.42 C 155.33 183.49 151.58 191.74 145.19 191.97 C 133.75 192.05 122.30 191.97 110.86 192.01 C 107.32 192.18 103.80 189.93 102.58 186.59 C 101.11 183.09 102.33 178.66 105.37 176.40 C 109.34 173.56 114.47 175.15 118.99 174.75 C 119.01 157.75 119.01 140.75 118.99 123.75 C 114.40 123.23 108.97 125.16 105.09 121.93 C 101.13 118.75 100.91 112.06 104.82 108.76 Z" />
</g>
</svg>
